<svg width="16" height="16" viewBox="0 0 16 16" fill="none" xmlns="http://www.w3.org/2000/svg">
<rect width="16" height="16" rx="2" fill="#618EF6"/>
<g clip-path="url(#clip0_301_56)">
<path d="M9.875 12.5H2.375C2.16875 12.5 2 12.6687 2 12.875V13.625C2 13.8313 2.16875 14 2.375 14H9.875C10.0813 14 10.25 13.8313 10.25 13.625V12.875C10.25 12.6687 10.0813 12.5 9.875 12.5ZM13.5594 4.51484L11.6609 2.61641C11.5156 2.47109 11.2766 2.47109 11.1313 2.61641L10.8664 2.88125C10.7211 3.02656 10.7211 3.26563 10.8664 3.41094L11.75 4.29453V5.75C11.75 6.40859 12.2398 6.95234 12.875 7.04375V10.8125C12.875 11.1219 12.6219 11.375 12.3125 11.375C12.0031 11.375 11.75 11.1219 11.75 10.8125V10.0625C11.75 8.92344 10.8266 8 9.6875 8H9.5V3.5C9.5 2.67266 8.82734 2 8 2H4.25C3.42266 2 2.75 2.67266 2.75 3.5V11.75H9.5V9.125H9.6875C10.2055 9.125 10.625 9.54453 10.625 10.0625V10.7141C10.625 11.5977 11.2578 12.4016 12.1367 12.493C13.1445 12.5938 14 11.8016 14 10.8125V5.57656C14 5.17813 13.8406 4.79609 13.5594 4.51484ZM8 6.5H4.25V3.5H8V6.5Z" fill="white"/>
</g>
<defs>
<clipPath id="clip0_301_56">
<rect x="2" y="2" width="12" height="12" rx="2" fill="white"/>
</clipPath>
</defs>
</svg>
